<svg width="130" height="93" viewBox="0 0 130 93" fill="none" xmlns="http://www.w3.org/2000/svg">
<g clip-path="url(#clip0)">
<path d="M51.9154 4.91964C51.9154 4.91964 41.0105 -0.446259 29.4532 5.90016C16.2098 13.1413 7.24951 11.7171 7.24951 11.7171V81.013" stroke="#7E8EFF" stroke-width="5" stroke-linecap="round" stroke-linejoin="round"/>
<path d="M7.2495 90.5488C9.89374 90.5488 12.0373 88.4141 12.0373 85.781C12.0373 83.1478 9.89374 81.0132 7.2495 81.0132C4.60525 81.0132 2.46167 83.1478 2.46167 85.781C2.46167 88.4141 4.60525 90.5488 7.2495 90.5488Z" stroke="#7E8EFF" stroke-width="5" stroke-linecap="round" stroke-linejoin="round"/>
<path d="M122.751 71.0559V11.7074C122.751 11.7074 112.496 12.8718 100.547 5.88314C82.8233 -3.23325 69.2648 8.66047 69.2648 8.66047" stroke="#7E8EFF" stroke-width="5" stroke-linecap="round" stroke-linejoin="round"/>
<path d="M65.0013 15.6074C67.6456 15.6074 69.7892 13.4727 69.7892 10.8396C69.7892 8.20639 67.6456 6.07178 65.0013 6.07178C62.3571 6.07178 60.2135 8.20639 60.2135 10.8396C60.2135 13.4727 62.3571 15.6074 65.0013 15.6074Z" stroke="#7E8EFF" stroke-width="5" stroke-linecap="round" stroke-linejoin="round"/>
<path d="M122.751 90.5488C125.395 90.5488 127.538 88.4141 127.538 85.781C127.538 83.1478 125.395 81.0132 122.751 81.0132C120.106 81.0132 117.963 83.1478 117.963 85.781C117.963 88.4141 120.106 90.5488 122.751 90.5488Z" stroke="#7E8EFF" stroke-width="5" stroke-linecap="round" stroke-linejoin="round"/>
<path d="M20.4314 86.3468C20.4314 86.3468 23.6315 85.3663 29.5763 82.3046C38.9895 77.3285 47.1694 76.3578 64.9939 86.8959" stroke="#7E8EFF" stroke-width="5" stroke-linecap="round" stroke-linejoin="round"/>
<path d="M117.963 86.8959C117.963 86.8959 109.891 87.8323 100.419 82.3046C91.0032 77.3285 82.8233 76.3578 65.0012 86.8959" stroke="#7E8EFF" stroke-width="5" stroke-linecap="round" stroke-linejoin="round"/>
<path d="M65.0012 15.6079V78.1676" stroke="#7E8EFF" stroke-width="5" stroke-linecap="round" stroke-linejoin="round"/>
<path d="M21.2832 27.028C24.7147 26.3515 26.3049 25.6087 29.7462 23.9271C35.0362 21.3435 36.7938 20.6841 39.7748 20.1448C42.9331 19.5736 45.4882 19.7893 50.6059 21.3091" stroke="#7E8EFF" stroke-width="2" stroke-linecap="round" stroke-linejoin="round"/>
<path d="M19.1489 29.7369C20.3629 29.7369 21.3471 28.7569 21.3471 27.5479C21.3471 26.3389 20.3629 25.3589 19.1489 25.3589C17.9349 25.3589 16.9507 26.3389 16.9507 27.5479C16.9507 28.7569 17.9349 29.7369 19.1489 29.7369Z" stroke="#7E8EFF" stroke-width="2" stroke-linecap="round" stroke-linejoin="round"/>
<path d="M53.2151 24.484C54.4291 24.484 55.4133 23.5039 55.4133 22.295C55.4133 21.086 54.4291 20.106 53.2151 20.106C52.001 20.106 51.0168 21.086 51.0168 22.295C51.0168 23.5039 52.001 24.484 53.2151 24.484Z" stroke="#7E8EFF" stroke-width="2" stroke-linecap="round" stroke-linejoin="round"/>
<path d="M21.0518 41.1179C24.4832 40.4413 26.0734 39.6961 29.5148 38.017C34.8048 35.4309 36.5599 34.7739 39.5434 34.2346C42.6991 33.6635 45.2568 33.8792 50.3867 35.399" stroke="#7E8EFF" stroke-width="2" stroke-linecap="round" stroke-linejoin="round"/>
<path d="M18.9175 43.8268C20.1315 43.8268 21.1157 42.8467 21.1157 41.6377C21.1157 40.4288 20.1315 39.4487 18.9175 39.4487C17.7034 39.4487 16.7192 40.4288 16.7192 41.6377C16.7192 42.8467 17.7034 43.8268 18.9175 43.8268Z" stroke="#7E8EFF" stroke-width="2" stroke-linecap="round" stroke-linejoin="round"/>
<path d="M52.9836 38.5738C54.1977 38.5738 55.1818 37.5938 55.1818 36.3848C55.1818 35.1759 54.1977 34.1958 52.9836 34.1958C51.7696 34.1958 50.7854 35.1759 50.7854 36.3848C50.7854 37.5938 51.7696 38.5738 52.9836 38.5738Z" stroke="#7E8EFF" stroke-width="2" stroke-linecap="round" stroke-linejoin="round"/>
<path d="M20.8204 55.2058C24.2495 54.5293 25.8421 53.7865 29.281 52.1049C34.5734 49.5213 36.3286 48.8643 39.312 48.325C42.4678 47.7539 45.0254 47.9696 50.1554 49.487" stroke="#7E8EFF" stroke-width="2" stroke-linecap="round" stroke-linejoin="round"/>
<path d="M18.6861 57.9142C19.9002 57.9142 20.8843 56.9341 20.8843 55.7251C20.8843 54.5162 19.9002 53.5361 18.6861 53.5361C17.4721 53.5361 16.4879 54.5162 16.4879 55.7251C16.4879 56.9341 17.4721 57.9142 18.6861 57.9142Z" stroke="#7E8EFF" stroke-width="2" stroke-linecap="round" stroke-linejoin="round"/>
<path d="M52.7523 52.6612C53.9663 52.6612 54.9505 51.6812 54.9505 50.4722C54.9505 49.2633 53.9663 48.2832 52.7523 48.2832C51.5383 48.2832 50.5541 49.2633 50.5541 50.4722C50.5541 51.6812 51.5383 52.6612 52.7523 52.6612Z" stroke="#7E8EFF" stroke-width="2" stroke-linecap="round" stroke-linejoin="round"/>
<path d="M21.0518 69.2961C24.4832 68.6195 26.0734 67.8768 29.5148 66.1952C34.8048 63.6115 36.5599 62.9521 39.5434 62.4128C42.6991 61.8417 45.2568 62.0574 50.3867 63.5772" stroke="#7E8EFF" stroke-width="2" stroke-linecap="round" stroke-linejoin="round"/>
<path d="M18.9175 72.0045C20.1315 72.0045 21.1157 71.0244 21.1157 69.8155C21.1157 68.6065 20.1315 67.6265 18.9175 67.6265C17.7034 67.6265 16.7192 68.6065 16.7192 69.8155C16.7192 71.0244 17.7034 72.0045 18.9175 72.0045Z" stroke="#7E8EFF" stroke-width="2" stroke-linecap="round" stroke-linejoin="round"/>
<path d="M52.9836 66.7516C54.1977 66.7516 55.1818 65.7715 55.1818 64.5626C55.1818 63.3536 54.1977 62.3735 52.9836 62.3735C51.7696 62.3735 50.7854 63.3536 50.7854 64.5626C50.7854 65.7715 51.7696 66.7516 52.9836 66.7516Z" stroke="#7E8EFF" stroke-width="2" stroke-linecap="round" stroke-linejoin="round"/>
<path d="M107.068 24.484C108.282 24.484 109.266 23.5039 109.266 22.295C109.266 21.086 108.282 20.106 107.068 20.106C105.854 20.106 104.87 21.086 104.87 22.295C104.87 23.5039 105.854 24.484 107.068 24.484Z" stroke="#7E8EFF" stroke-width="2" stroke-linecap="round" stroke-linejoin="round"/>
<path d="M80.7729 52.6612C81.987 52.6612 82.9711 51.6812 82.9711 50.4722C82.9711 49.2633 81.987 48.2832 80.7729 48.2832C79.5589 48.2832 78.5747 49.2633 78.5747 50.4722C78.5747 51.6812 79.5589 52.6612 80.7729 52.6612Z" stroke="#7E8EFF" stroke-width="2" stroke-linecap="round" stroke-linejoin="round"/>
<path d="M104.869 22.2944H80.7728V48.2831" stroke="#7E8EFF" stroke-width="2" stroke-linecap="round" stroke-linejoin="round"/>
<path d="M107.068 52.6612C108.282 52.6612 109.266 51.6812 109.266 50.4722C109.266 49.2633 108.282 48.2832 107.068 48.2832C105.854 48.2832 104.87 49.2633 104.87 50.4722C104.87 51.6812 105.854 52.6612 107.068 52.6612Z" stroke="#7E8EFF" stroke-width="2" stroke-linecap="round" stroke-linejoin="round"/>
<path d="M107.068 30.8618V48.2857" stroke="#7E8EFF" stroke-width="2" stroke-linecap="round" stroke-linejoin="round"/>
<path d="M104.869 50.4722H88.6942" stroke="#7E8EFF" stroke-width="2" stroke-linecap="round" stroke-linejoin="round"/>
<path d="M108.963 68.9846C105.532 68.308 103.941 67.5653 100.5 65.8837C95.2101 63.2976 93.4525 62.6406 90.4715 62.1013C87.3132 61.5302 84.7581 61.7459 79.6404 63.2657" stroke="#7E8EFF" stroke-width="2" stroke-linecap="round" stroke-linejoin="round"/>
<path d="M111.097 71.693C112.311 71.693 113.296 70.7129 113.296 69.504C113.296 68.295 112.311 67.3149 111.097 67.3149C109.883 67.3149 108.899 68.295 108.899 69.504C108.899 70.7129 109.883 71.693 111.097 71.693Z" stroke="#7E8EFF" stroke-width="2" stroke-linecap="round" stroke-linejoin="round"/>
<path d="M77.0312 66.44C78.2453 66.44 79.2294 65.46 79.2294 64.251C79.2294 63.0421 78.2453 62.062 77.0312 62.062C75.8172 62.062 74.833 63.0421 74.833 64.251C74.833 65.46 75.8172 66.44 77.0312 66.44Z" stroke="#7E8EFF" stroke-width="2" stroke-linecap="round" stroke-linejoin="round"/>
</g>
<defs>
<clipPath id="clip0">
<rect width="130" height="93" fill="white"/>
</clipPath>
</defs>
</svg>
